<?xml version="1.0" encoding="UTF-8"?>
<!-- Generator: Adobe Illustrator 16.0.0, SVG Export Plug-In . SVG Version: 6.00 Build 0)  -->
<!DOCTYPE svg PUBLIC "-//W3C//DTD SVG 1.1//EN" "http://www.w3.org/Graphics/SVG/1.1/DTD/svg11.dtd">
<svg version="1.1" id="Layer_1" xmlns="http://www.w3.org/2000/svg" xmlns:xlink="http://www.w3.org/1999/xlink" x="0px" y="0px" width="320px" height="102px" viewBox="0 0 320 102" enable-background="new 0 0 320 102" xml:space="preserve">
<g>
	<path fill="#37483C" d="M118.75,64.934l-0.645-1.822h-3.518l-0.646,1.822h-0.917l2.964-8.056h0.725l2.953,8.056H118.75z    M116.362,58.111l-1.516,4.253h3.01L116.362,58.111z"/>
	<path fill="#37483C" d="M123.773,65c-1.629,0-2.806-1.119-2.806-2.727v-5.396h0.859v5.329c0,1.221,0.77,2.024,1.946,2.024   c1.177,0,1.957-0.804,1.957-2.024v-5.329h0.86v5.396C126.59,63.881,125.403,65,123.773,65"/>
	<path fill="#37483C" d="M130.993,65c-1.21,0-2.003-0.305-2.761-1.062l0.588-0.588c0.667,0.666,1.29,0.882,2.195,0.882   c1.177,0,1.901-0.555,1.901-1.493c0-0.419-0.125-0.781-0.385-1.008c-0.26-0.226-0.464-0.293-1.052-0.384l-0.939-0.147   c-0.633-0.102-1.131-0.306-1.482-0.611c-0.407-0.361-0.611-0.859-0.611-1.504c0-1.369,0.984-2.274,2.58-2.274   c1.03,0,1.708,0.261,2.398,0.882l-0.554,0.555c-0.498-0.453-1.029-0.689-1.878-0.689c-1.075,0-1.697,0.6-1.697,1.493   c0,0.396,0.113,0.712,0.362,0.927c0.249,0.216,0.668,0.375,1.086,0.441l0.883,0.137c0.757,0.113,1.131,0.271,1.471,0.564   c0.441,0.374,0.679,0.929,0.679,1.596C133.776,64.13,132.667,65,130.993,65"/>
	<polygon fill="#37483C" points="138.054,57.646 138.054,64.934 137.194,64.934 137.194,57.646 134.863,57.646 134.863,56.878    140.384,56.878 140.384,57.646  "/>
	<path fill="#37483C" d="M146.63,64.934l-1.833-3.576h-1.935v3.576h-0.86v-8.056h3.089c1.403,0,2.387,0.849,2.387,2.239   c0,1.178-0.712,1.946-1.753,2.162l1.912,3.654H146.63z M145.013,57.646h-2.15V60.6h2.15c0.938,0,1.606-0.486,1.606-1.471   S145.951,57.646,145.013,57.646"/>
	<path fill="#37483C" d="M154.234,64.934l-0.645-1.822h-3.519l-0.645,1.822h-0.917l2.965-8.056h0.724l2.953,8.056H154.234z    M151.847,58.111l-1.516,4.253h3.009L151.847,58.111z"/>
	<polygon fill="#37483C" points="156.565,64.934 156.565,56.878 157.425,56.878 157.425,64.164 161.544,64.164 161.544,64.934  "/>
	<rect x="163.162" y="56.878" fill="#37483C" width="0.86" height="8.056"/>
	<path fill="#37483C" d="M171.162,64.934l-0.646-1.822h-3.519l-0.645,1.822h-0.917l2.964-8.056h0.725l2.953,8.056H171.162z    M168.774,58.111l-1.517,4.253h3.01L168.774,58.111z"/>
	<polygon fill="#37483C" points="178.63,64.934 174.353,58.473 174.353,64.934 173.492,64.934 173.492,56.878 174.307,56.878    178.584,63.314 178.584,56.878 179.443,56.878 179.443,64.934  "/>
	<path fill="#37483C" d="M187.331,65c-0.792,0-1.517-0.293-2.06-0.836c-0.758-0.759-0.758-1.551-0.758-3.259s0-2.501,0.758-3.258   c0.543-0.544,1.268-0.838,2.06-0.838c1.448,0,2.522,0.882,2.794,2.398h-0.883c-0.215-0.984-0.904-1.629-1.911-1.629   c-0.532,0-1.041,0.204-1.392,0.565c-0.51,0.521-0.565,1.075-0.565,2.761c0,1.687,0.056,2.24,0.565,2.761   c0.351,0.361,0.859,0.565,1.392,0.565c1.007,0,1.72-0.646,1.935-1.63h0.859C189.865,64.118,188.768,65,187.331,65"/>
	<polygon fill="#37483C" points="192.141,64.934 192.141,56.878 197.141,56.878 197.141,57.646 193,57.646 193,60.486    196.53,60.486 196.53,61.256 193,61.256 193,64.164 197.141,64.164 197.141,64.934  "/>
	<polygon fill="#37483C" points="204.18,64.934 199.902,58.473 199.902,64.934 199.043,64.934 199.043,56.878 199.857,56.878    204.134,63.314 204.134,56.878 204.994,56.878 204.994,64.934  "/>
	<polygon fill="#37483C" points="209.803,57.646 209.803,64.934 208.943,64.934 208.943,57.646 206.612,57.646 206.612,56.878    212.133,56.878 212.133,57.646  "/>
	<path fill="#37483C" d="M218.38,64.934l-1.833-3.576h-1.936v3.576h-0.859v-8.056h3.09c1.402,0,2.387,0.849,2.387,2.239   c0,1.178-0.713,1.946-1.754,2.162l1.912,3.654H218.38z M216.762,57.646h-2.15V60.6h2.15c0.939,0,1.606-0.486,1.606-1.471   S217.701,57.646,216.762,57.646"/>
	<polygon fill="#37483C" points="221.289,64.934 221.289,56.878 226.289,56.878 226.289,57.646 222.148,57.646 222.148,60.486    225.678,60.486 225.678,61.256 222.148,61.256 222.148,64.164 226.289,64.164 226.289,64.934  "/>
	<path fill="#37483C" d="M235.691,64.164c-0.543,0.543-1.256,0.836-2.059,0.836c-0.804,0-1.516-0.293-2.06-0.836   c-0.759-0.759-0.759-1.551-0.759-3.259s0-2.501,0.759-3.259c0.544-0.543,1.256-0.837,2.06-0.837c0.803,0,1.516,0.294,2.059,0.837   c0.759,0.758,0.759,1.551,0.759,3.259S236.45,63.405,235.691,64.164 M235.023,58.156c-0.35-0.363-0.859-0.577-1.391-0.577   c-0.532,0-1.041,0.214-1.392,0.577c-0.509,0.52-0.565,1.063-0.565,2.749c0,1.687,0.057,2.229,0.565,2.749   c0.351,0.361,0.859,0.577,1.392,0.577c0.531,0,1.041-0.216,1.391-0.577c0.51-0.521,0.566-1.062,0.566-2.749   C235.59,59.22,235.533,58.676,235.023,58.156"/>
	<polygon fill="#37483C" points="239.449,57.646 239.449,60.61 242.979,60.61 242.979,61.381 239.449,61.381 239.449,64.934    238.589,64.934 238.589,56.878 243.59,56.878 243.59,57.646  "/>
</g>
<g>
	<path fill="#89AE3F" d="M252.822,64.934l-1.832-3.576h-1.935v3.576h-0.86v-8.056h3.089c1.403,0,2.388,0.849,2.388,2.239   c0,1.178-0.713,1.946-1.754,2.162l1.912,3.654H252.822z M251.205,57.646h-2.149V60.6h2.149c0.938,0,1.606-0.486,1.606-1.471   S252.144,57.646,251.205,57.646"/>
	<polygon fill="#89AE3F" points="255.73,64.934 255.73,56.878 260.732,56.878 260.732,57.646 256.591,57.646 256.591,60.486    260.121,60.486 260.121,61.256 256.591,61.256 256.591,64.164 260.732,64.164 260.732,64.934  "/>
	<path fill="#89AE3F" d="M264.704,65c-1.211,0-2.003-0.305-2.761-1.062l0.589-0.588c0.667,0.666,1.29,0.882,2.194,0.882   c1.178,0,1.9-0.555,1.9-1.493c0-0.419-0.124-0.781-0.384-1.008c-0.261-0.226-0.464-0.293-1.053-0.384l-0.939-0.147   c-0.633-0.102-1.131-0.306-1.481-0.611c-0.407-0.361-0.611-0.859-0.611-1.504c0-1.369,0.984-2.274,2.58-2.274   c1.029,0,1.709,0.261,2.398,0.882l-0.555,0.555c-0.498-0.453-1.029-0.689-1.878-0.689c-1.075,0-1.696,0.6-1.696,1.493   c0,0.396,0.112,0.712,0.361,0.927c0.249,0.216,0.668,0.375,1.086,0.441l0.883,0.137c0.758,0.113,1.131,0.271,1.471,0.564   c0.441,0.374,0.679,0.929,0.679,1.596C267.487,64.13,266.379,65,264.704,65"/>
	<polygon fill="#89AE3F" points="269.4,64.934 269.4,56.878 274.4,56.878 274.4,57.646 270.26,57.646 270.26,60.486 273.789,60.486    273.789,61.256 270.26,61.256 270.26,64.164 274.4,64.164 274.4,64.934  "/>
	<path fill="#89AE3F" d="M280.998,64.934l-0.646-1.822h-3.519l-0.645,1.822h-0.917l2.964-8.056h0.725l2.953,8.056H280.998z    M278.61,58.111l-1.516,4.253h3.009L278.61,58.111z"/>
	<path fill="#89AE3F" d="M287.957,64.934l-1.833-3.576h-1.935v3.576h-0.86v-8.056h3.089c1.403,0,2.387,0.849,2.387,2.239   c0,1.178-0.712,1.946-1.753,2.162l1.911,3.654H287.957z M286.339,57.646h-2.149V60.6h2.149c0.938,0,1.606-0.486,1.606-1.471   S287.277,57.646,286.339,57.646"/>
	<path fill="#89AE3F" d="M293.377,65c-0.792,0-1.516-0.293-2.06-0.836c-0.759-0.759-0.759-1.551-0.759-3.259s0-2.501,0.759-3.258   c0.544-0.544,1.268-0.838,2.06-0.838c1.447,0,2.522,0.882,2.793,2.398h-0.881c-0.215-0.984-0.905-1.629-1.912-1.629   c-0.532,0-1.041,0.204-1.392,0.565c-0.509,0.521-0.565,1.075-0.565,2.761c0,1.687,0.057,2.24,0.565,2.761   c0.351,0.361,0.859,0.565,1.392,0.565c1.007,0,1.719-0.646,1.935-1.63h0.858C295.911,64.118,294.813,65,293.377,65"/>
	<polygon fill="#89AE3F" points="302.87,64.934 302.87,61.256 299.046,61.256 299.046,64.934 298.186,64.934 298.186,56.878    299.046,56.878 299.046,60.486 302.87,60.486 302.87,56.878 303.73,56.878 303.73,64.934  "/>
	<polygon fill="#89AE3F" points="114.054,78.512 114.054,70.456 119.055,70.456 119.055,71.225 114.914,71.225 114.914,74.064    118.444,74.064 118.444,74.834 114.914,74.834 114.914,77.742 119.055,77.742 119.055,78.512  "/>
	<polygon fill="#89AE3F" points="124.86,78.512 122.902,75.129 120.934,78.512 119.96,78.512 122.427,74.382 120.119,70.456    121.115,70.456 122.902,73.635 124.69,70.456 125.686,70.456 123.367,74.382 125.855,78.512  "/>
	<path fill="#89AE3F" d="M129.703,78.579c-0.792,0-1.517-0.294-2.059-0.837c-0.758-0.759-0.758-1.551-0.758-3.258   c0-1.709,0-2.502,0.758-3.26c0.542-0.543,1.267-0.836,2.059-0.836c1.448,0,2.523,0.881,2.794,2.397h-0.882   c-0.215-0.983-0.905-1.628-1.912-1.628c-0.532,0-1.041,0.203-1.392,0.564c-0.509,0.521-0.565,1.075-0.565,2.762   c0,1.686,0.057,2.239,0.565,2.76c0.351,0.361,0.86,0.566,1.392,0.566c1.007,0,1.719-0.646,1.935-1.63h0.86   C132.237,77.696,131.139,78.579,129.703,78.579"/>
	<polygon fill="#89AE3F" points="134.512,78.512 134.512,70.456 139.513,70.456 139.513,71.225 135.372,71.225 135.372,74.064    138.902,74.064 138.902,74.834 135.372,74.834 135.372,77.742 139.513,77.742 139.513,78.512  "/>
	<polygon fill="#89AE3F" points="141.415,78.512 141.415,70.456 142.274,70.456 142.274,77.742 146.393,77.742 146.393,78.512  "/>
	<polygon fill="#89AE3F" points="148.011,78.512 148.011,70.456 148.871,70.456 148.871,77.742 152.989,77.742 152.989,78.512  "/>
	<polygon fill="#89AE3F" points="154.608,78.512 154.608,70.456 159.609,70.456 159.609,71.225 155.468,71.225 155.468,74.064    158.998,74.064 158.998,74.834 155.468,74.834 155.468,77.742 159.609,77.742 159.609,78.512  "/>
	<polygon fill="#89AE3F" points="166.646,78.512 162.37,72.051 162.37,78.512 161.51,78.512 161.51,70.456 162.324,70.456    166.602,76.893 166.602,70.456 167.461,70.456 167.461,78.512  "/>
	<path fill="#89AE3F" d="M172.418,78.579c-0.792,0-1.516-0.294-2.059-0.837c-0.759-0.759-0.759-1.551-0.759-3.258   c0-1.709,0-2.502,0.759-3.26c0.543-0.543,1.267-0.836,2.059-0.836c1.447,0,2.522,0.881,2.795,2.397h-0.883   c-0.215-0.983-0.906-1.628-1.912-1.628c-0.531,0-1.041,0.203-1.393,0.564c-0.508,0.521-0.564,1.075-0.564,2.762   c0,1.686,0.057,2.239,0.564,2.76c0.352,0.361,0.861,0.566,1.393,0.566c1.006,0,1.719-0.646,1.935-1.63h0.86   C174.952,77.696,173.855,78.579,172.418,78.579"/>
	<polygon fill="#89AE3F" points="177.227,78.512 177.227,70.456 182.228,70.456 182.228,71.225 178.087,71.225 178.087,74.064    181.617,74.064 181.617,74.834 178.087,74.834 178.087,77.742 182.228,77.742 182.228,78.512  "/>
	<rect x="187.061" y="70.456" fill="#89AE3F" width="0.859" height="8.056"/>
	<polygon fill="#89AE3F" points="195.5,78.512 191.224,72.051 191.224,78.512 190.363,78.512 190.363,70.456 191.178,70.456    195.455,76.893 195.455,70.456 196.314,70.456 196.314,78.512  "/>
	<polygon fill="#89AE3F" points="207.731,78.512 207.731,72.391 205.525,77.244 204.789,77.244 202.551,72.391 202.551,78.512    201.689,78.512 201.689,70.456 202.551,70.456 205.175,76.17 207.731,70.456 208.592,70.456 208.592,78.512  "/>
	<path fill="#89AE3F" d="M215.732,78.512l-0.646-1.822h-3.519l-0.645,1.822h-0.917l2.964-8.056h0.725l2.953,8.056H215.732z    M213.345,71.689l-1.517,4.254h3.01L213.345,71.689z"/>
	<polygon fill="#89AE3F" points="218.063,78.512 218.063,70.456 218.923,70.456 218.923,77.742 223.041,77.742 223.041,78.512  "/>
	<path fill="#89AE3F" d="M229.355,78.512l-0.645-1.822h-3.52l-0.645,1.822h-0.917l2.965-8.056h0.724l2.953,8.056H229.355z    M226.969,71.689l-1.517,4.254h3.009L226.969,71.689z"/>
	<path fill="#89AE3F" d="M236.314,78.512l-1.833-3.576h-1.935v3.576h-0.859v-8.056h3.088c1.403,0,2.388,0.849,2.388,2.24   c0,1.177-0.713,1.945-1.754,2.161l1.912,3.654H236.314z M234.696,71.225h-2.149v2.953h2.149c0.938,0,1.606-0.486,1.606-1.471   S235.635,71.225,234.696,71.225"/>
	<rect x="239.223" y="70.456" fill="#89AE3F" width="0.859" height="8.056"/>
	<path fill="#89AE3F" d="M247.223,78.512l-0.645-1.822h-3.52l-0.645,1.822h-0.918l2.965-8.056h0.725l2.953,8.056H247.223z    M244.835,71.689l-1.517,4.254h3.01L244.835,71.689z"/>
	<polygon fill="#89AE3F" points="252.484,78.512 252.484,70.456 257.484,70.456 257.484,71.225 253.344,71.225 253.344,74.064    256.873,74.064 256.873,74.834 253.344,74.834 253.344,77.742 257.484,77.742 257.484,78.512  "/>
	<polygon fill="#89AE3F" points="259.387,78.512 259.387,70.456 260.246,70.456 260.246,77.742 264.364,77.742 264.364,78.512  "/>
	<rect x="265.982" y="70.456" fill="#89AE3F" width="0.861" height="8.056"/>
	<polygon fill="#89AE3F" points="275.328,78.512 275.328,72.391 273.123,77.244 272.387,77.244 270.146,72.391 270.146,78.512    269.287,78.512 269.287,70.456 270.146,70.456 272.771,76.17 275.328,70.456 276.188,70.456 276.188,78.512  "/>
	<rect x="278.634" y="70.456" fill="#89AE3F" width="0.859" height="8.056"/>
	<polygon fill="#89AE3F" points="287.074,78.512 282.797,72.051 282.797,78.512 281.938,78.512 281.938,70.456 282.752,70.456    287.028,76.893 287.028,70.456 287.889,70.456 287.889,78.512  "/>
	<path fill="#89AE3F" d="M295.028,78.512l-0.645-1.822h-3.519l-0.646,1.822h-0.916l2.964-8.056h0.725l2.953,8.056H295.028z    M292.641,71.689l-1.516,4.254h3.01L292.641,71.689z"/>
	<polygon fill="#89AE3F" points="299.045,71.225 299.045,78.512 298.185,78.512 298.185,71.225 295.854,71.225 295.854,70.456    301.375,70.456 301.375,71.225  "/>
	<rect x="302.994" y="70.456" fill="#89AE3F" width="0.859" height="8.056"/>
	<path fill="#89AE3F" d="M310.869,77.742c-0.543,0.543-1.256,0.837-2.06,0.837s-1.516-0.294-2.059-0.837   c-0.759-0.759-0.759-1.551-0.759-3.258c0-1.709,0-2.502,0.759-3.26c0.543-0.543,1.255-0.836,2.059-0.836s1.517,0.293,2.06,0.836   c0.758,0.758,0.758,1.551,0.758,3.26C311.627,76.191,311.627,76.983,310.869,77.742 M310.201,71.734   c-0.351-0.362-0.859-0.576-1.392-0.576c-0.531,0-1.04,0.214-1.392,0.576c-0.509,0.52-0.565,1.063-0.565,2.75   c0,1.686,0.057,2.229,0.565,2.748c0.352,0.362,0.86,0.578,1.392,0.578c0.532,0,1.041-0.216,1.392-0.578   c0.51-0.52,0.566-1.062,0.566-2.748C310.768,72.798,310.711,72.254,310.201,71.734"/>
	<polygon fill="#89AE3F" points="318.902,78.512 314.625,72.051 314.625,78.512 313.766,78.512 313.766,70.456 314.58,70.456    318.857,76.893 318.857,70.456 319.717,70.456 319.717,78.512  "/>
</g>
<g>
	<path fill="#37483C" d="M139.261,38.739h-16.957l-3.361,6.383h-4.909l14.313-26.436h4.985l14.275,26.436h-4.948L139.261,38.739z    M137.26,34.887l-6.458-12.236l-6.458,12.236H137.26z"/>
	<path fill="#37483C" d="M174.571,37.229l4.192,2.077c-2.492,3.853-7.326,6.609-14.012,6.609c-9.894,0-16.126-5.325-16.126-14.011   c0-8.686,6.232-14.012,16.315-14.012c6.496,0,11.33,2.795,13.784,6.572l-4.229,2.115c-1.965-3.248-5.325-4.683-9.631-4.683   c-6.986,0-11.632,3.398-11.632,10.008c0,6.608,4.646,10.007,11.632,10.007C169.171,41.911,172.57,40.514,174.571,37.229"/>
	<path fill="#37483C" d="M207.955,45.122l-8.195-9.592h-11.141v9.592h-4.533V18.686h17.978c6.155,0,10.688,2.946,10.688,8.422   c0,4.57-3.173,7.364-7.78,8.195l8.574,9.819H207.955z M201.761,31.639c3.776,0,6.345-1.208,6.345-4.494   c0-3.285-2.568-4.494-6.345-4.494h-13.18v8.988H201.761z"/>
	<polygon fill="#37483C" points="245.454,41.156 245.454,45.122 219.132,45.122 219.132,18.686 245.076,18.686 245.076,22.651    223.625,22.651 223.625,29.713 241.678,29.713 241.678,33.679 223.625,33.679 223.625,41.156  "/>
	<polygon fill="#37483C" points="285.711,18.686 285.711,45.122 281.179,45.122 281.179,24.841 268.604,40.099 268.339,40.099    255.762,24.841 255.762,45.122 251.383,45.122 251.383,18.686 256.291,18.686 268.564,33.83 280.839,18.686  "/>
	<polygon fill="#37483C" points="320,41.156 320,45.122 293.678,45.122 293.678,18.686 319.623,18.686 319.623,22.651    298.172,22.651 298.172,29.713 316.223,29.713 316.223,33.679 298.172,33.679 298.172,41.156  "/>
</g>
<path fill-rule="evenodd" clip-rule="evenodd" fill="#BED081" d="M58.385,101.527C33.99,104.843,11.357,90.413,3.414,68.121  l13.574-8.553L58.385,101.527z M5.833,28.23c3.938-6.839,9.24-14.295,19.376-21.16l1.367,22.332l0.003-0.002  c-8.867,7.416-13.703,18.419-10.56,27.488L2.236,64.384C-2.278,49.551,0.62,38.653,5.806,28.258L5.833,28.23z"/>
<path fill-rule="evenodd" clip-rule="evenodd" fill="#A4B086" d="M51.46,0c2.207,0,6.598,0.338,9.419,0.883l0.013-0.01  c11.85,2.216,22.255,8.529,29.691,17.415L60.14,24.481l0.002,0.003l-9.948,2.078c-6.462-2.643-13.548-2.197-19.791,1.176  L28.863,5.272C35.674,1.898,43.345,0,51.46,0 M92.606,20.869c1.555,2.119,3.211,5.211,4.428,7.562l-31.196,23.78  c0.564-9.512-4.033-18.599-11.544-23.493L92.606,20.869z"/>
<path fill-rule="evenodd" clip-rule="evenodd" fill="#6C7943" d="M86.312,88.485c-6.382,5.46-15.854,10.651-24.381,12.431  l-16.488-16.46l19.992-19.589L86.312,88.485z M65.052,58.358l33.561-26.729c2.728,7.264,5.132,17.7,3.167,27.525l0.029-0.016  c-1.632,10.173-6.275,19.339-12.983,26.559L65.052,58.364L65.052,58.358z"/>
<g>
	<path fill-rule="evenodd" clip-rule="evenodd" fill="#37483C" d="M19.648,62.268l-2.6-2.882L3.143,68.042   c0.454,1.271,1.228,2.601,1.774,3.82L19.648,62.268z"/>
	<path fill-rule="evenodd" clip-rule="evenodd" fill="#37483C" d="M58.28,31.899l36.539-7.755c-0.695-1.121-1.434-2.214-2.212-3.275   l-38.313,7.849C55.675,29.619,57.01,30.678,58.28,31.899"/>
	<path fill-rule="evenodd" clip-rule="evenodd" fill="#37483C" d="M65.052,58.37l2.755,3.151 M65.96,65.436l-2.969-3.414   l-19.563,20.42l3.135,3.123L65.96,65.436z M67.893,61.663l32.088-25.921c-0.394-1.405-0.856-2.749-1.368-4.113L65.058,58.357"/>
</g>
<path fill-rule="evenodd" clip-rule="evenodd" fill="#F58335" d="M55.803,65.274c8.876-8.404,9.021-22.15,0.541-30.635  C36.522,14.815,6.404,44.931,26.228,64.752l15.046,15.045L55.803,65.274z"/>
<path fill-rule="evenodd" clip-rule="evenodd" fill="#A12221" d="M41.288,35.708c7.726,0,13.987,6.263,13.987,13.989  c0,7.726-6.261,13.986-13.987,13.986c-7.726,0-13.989-6.261-13.989-13.986C27.299,41.97,33.562,35.708,41.288,35.708"/>
</svg>